<svg height="682pt" viewBox="-21 -25 682.66679 682" width="682pt" xmlns="http://www.w3.org/2000/svg"><path d="m632.464844 282.648438-.078125-.164063c-6.007813-12.792969-8.492188-26.957031-7.203125-41.03125l.003906-.039063c2.164062-23.628906-6.335938-46.980468-23.183594-63.691406l-.023437-.023437c-10.039063-9.957031-17.238281-22.40625-20.859375-36.070313l-.035156-.125c-6.0625-22.882812-22.007813-41.867187-43.496094-51.796875l-.078125-.035156c-12.859375-5.941406-23.894531-15.210937-31.972657-26.847656l-.019531-.03125c-13.511719-19.472657-35-31.902344-58.613281-33.898438l-.121094-.007812c-14.0625-1.1875-27.550781-6.101563-39.085937-14.226563l-.09375-.066406c-19.375-13.652344-43.828125-17.945312-66.695313-11.710938-13.691406 3.730469-28.132812 3.730469-41.824218 0-22.867188-6.234374-47.320313-1.941406-66.695313 11.710938l-.09375.0625c-11.535156 8.128906-25.023437 13.039062-39.085937 14.230469l-.121094.007812c-23.613282 1.996094-45.101563 14.425781-58.613282 33.898438l-.019531.027343c-8.078125 11.640626-19.113281 20.910157-31.972656 26.851563l-.078125.035156c-21.488281 9.929688-37.433594 28.914063-43.496094 51.796875l-.035156.121094c-3.621094 13.667969-10.820312 26.117188-20.859375 36.074219l-.023437.023437c-16.847657 16.710938-25.347657 40.0625-23.183594 63.691406l.003906.039063c1.289062 14.074219-1.195312 28.238281-7.203125 41.03125l-.078125.164063c-10.042969 21.398437-10.042969 46.164062 0 67.5625l.078125.164062c6.007813 12.792969 8.492187 26.957031 7.203125 41.027344l-.003906.046875c-2.164063 23.621093 6.335937 46.976562 23.183594 63.683593l.023437.027344c10.039063 9.953125 17.238281 22.40625 20.859375 36.066406l.035156.128907c6.0625 22.878906 22.007813 41.871093 43.496094 51.796875l.078125.039062c12.859375 5.9375 23.894531 15.203125 31.972656 26.84375l.019531.035156c13.511719 19.46875 35 31.894532 58.613282 33.890626l.121094.011718c14.0625 1.191406 27.550781 6.097656 39.085937 14.226563l.09375.070312c19.375 13.648438 43.828125 17.9375 66.695313 11.703125 13.691406-3.730468 28.132812-3.730468 41.824218 0 22.867188 6.234375 47.320313 1.945313 66.695313-11.703125l.09375-.070312c11.535156-8.128907 25.023437-13.035157 39.085937-14.226563l.121094-.011718c23.613281-1.996094 45.101562-14.421876 58.613281-33.890626l.023438-.035156c8.074219-11.632812 19.113281-20.902344 31.96875-26.84375l.078125-.039062c21.488281-9.925782 37.4375-28.917969 43.496094-51.792969l.035156-.125c3.621094-13.664063 10.824218-26.113281 20.859375-36.070313l.027343-.03125c16.84375-16.703124 25.34375-40.0625 23.179688-63.683593l-.003906-.046875c-1.289063-14.070313 1.195312-28.234375 7.207031-41.027344l.074219-.164062c10.046875-21.398438 10.046875-46.164063 0-67.5625zm0 0" fill="#e7e7e7"/><path d="m283.898438 618.269531-.089844-.070312c-11.539063-8.128907-25.027344-13.035157-39.089844-14.226563l-.121094-.011718c-23.613281-1.996094-45.101562-14.421876-58.613281-33.894532l-.019531-.035156c-8.074219-11.636719-19.109375-20.902344-31.972656-26.84375l-.078126-.035156c-21.488281-9.933594-37.429687-28.917969-43.496093-51.796875l-.035157-.128907c-3.621093-13.660156-10.820312-26.113281-20.859374-36.066406l-.023438-.027344c-16.84375-16.707031-25.347656-40.0625-23.183594-63.691406l.003906-.039062c1.289063-14.070313-1.195312-28.234375-7.199218-41.027344l-.078125-.167969c-10.046875-21.394531-10.046875-46.160156 0-67.5625l.078125-.160156c6.003906-12.792969 8.488281-26.957031 7.199218-41.03125l-.003906-.042969c-2.164062-23.625 6.339844-46.984375 23.183594-63.6875l.023438-.027344c10.039062-9.957031 17.238281-22.410156 20.859374-36.070312l.035157-.121094c6.066406-22.882812 22.007812-41.871094 43.496093-51.796875l.078126-.039062c12.863281-5.945313 23.898437-15.210938 31.972656-26.847657l.019531-.035156c13.511719-19.464844 35-31.898437 58.613281-33.890625l.121094-.007812c14.0625-1.191407 27.550781-6.101563 39.089844-14.230469l.089844-.066406c6.421874-4.523438 13.40625-7.996094 20.699218-10.421875-1.84375-.359375-3.6875-.789063-5.511718-1.285157-22.867188-6.234374-47.320313-1.941406-66.695313 11.707032l-.09375.066406c-11.535156 8.128906-25.023437 13.039062-39.085937 14.230469l-.121094.007812c-23.613282 1.996094-45.101563 14.425781-58.613282 33.890625l-.019531.035156c-8.078125 11.636719-19.113281 20.902344-31.972656 26.847657l-.078125.039062c-21.488281 9.925781-37.433594 28.914063-43.496094 51.796875l-.035156.121094c-3.621094 13.660156-10.820312 26.113281-20.859375 36.070312l-.023437.027344c-16.847657 16.703125-25.347657 40.0625-23.183594 63.6875l.003906.042969c1.289062 14.074219-1.195312 28.238281-7.203125 41.03125l-.078125.160156c-10.042969 21.402344-10.042969 46.167969 0 67.5625l.078125.167969c6.007813 12.792969 8.492187 26.957031 7.203125 41.027344l-.003906.039062c-2.164063 23.628906 6.335937 46.984375 23.183594 63.691406l.023437.027344c10.039063 9.953125 17.238281 22.40625 20.859375 36.066406l.035156.128907c6.0625 22.878906 22.007813 41.863281 43.496094 51.796875l.078125.035156c12.859375 5.941406 23.894531 15.207031 31.972656 26.84375l.019531.035156c13.511719 19.472656 35 31.898438 58.613282 33.894532l.121094.011718c14.0625 1.191406 27.550781 6.097656 39.085937 14.226563l.09375.070312c19.375 13.648438 43.828125 17.9375 66.695313 11.703125 1.824218-.492187 3.667968-.921875 5.511718-1.285156-7.292968-2.425781-14.277344-5.898438-20.699218-10.417969zm0 0" fill="#c7c5cb"/><path d="m360.226562 258.117188c103.800782 15.363281 104.296876 92.210937 87.261719 142.875-2.242187 6.632812-8.859375 10.769531-15.765625 9.703124-24.695312-3.796874-82.089844-16.511718-104.953125-54.683593-3.03125-5.066407-10.507812-5.066407-13.542969 0-22.855468 38.171875-80.253906 50.886719-104.945312 54.683593-6.914062 1.066407-13.53125-3.070312-15.773438-9.703124-17.035156-50.664063-16.539062-127.511719 87.261719-142.875zm0 0" fill="#c7c5cb"/><path d="m360.226562 258.117188c-1.40625 20.992187-18.875 37.585937-40.226562 37.585937-21.347656 0-38.824219-16.59375-40.230469-37.585937 11.980469-1.777344 25.355469-2.738282 40.230469-2.738282 14.871094 0 28.25.960938 40.226562 2.738282zm0 0" fill="#423e4f"/><path d="m221.667969 251.710938c-5.332031 0-9.65625-4.324219-9.65625-9.65625v-20.058594c0-5.332032 4.324219-9.660156 9.65625-9.660156s9.660156 4.328124 9.660156 9.660156v20.058594c0 5.332031-4.328125 9.65625-9.660156 9.65625zm0 0" fill="#423e4f"/><path d="m191.878906 276.21875h-20.207031c-5.332031 0-9.65625-4.324219-9.65625-9.65625 0-5.339844 4.324219-9.660156 9.65625-9.660156h20.207031c5.332032 0 9.65625 4.320312 9.65625 9.660156 0 5.332031-4.324218 9.65625-9.65625 9.65625zm0 0" fill="#ffb2c1"/><path d="m418.328125 251.710938c-5.332031 0-9.660156-4.324219-9.660156-9.65625v-20.058594c0-5.332032 4.328125-9.660156 9.660156-9.660156 5.335937 0 9.65625 4.328124 9.65625 9.660156v20.058594c0 5.332031-4.320313 9.65625-9.65625 9.65625zm0 0" fill="#423e4f"/><path d="m468.324219 276.21875h-20.203125c-5.335938 0-9.65625-4.324219-9.65625-9.65625 0-5.339844 4.320312-9.660156 9.65625-9.660156h20.203125c5.332031 0 9.65625 4.320312 9.65625 9.660156 0 5.332031-4.324219 9.65625-9.65625 9.65625zm0 0" fill="#ffb2c1"/></svg>