<svg height="681pt" viewBox="-48 -21 681 681.33342" width="681pt" xmlns="http://www.w3.org/2000/svg"><path d="m84.238281.445312c-7.339843-1.511718-14.960937.890626-20.058593 6.382813-21.984376 23.660156-74.664063 97.875-5.785157 211.914063l127.300781-140.792969s-36.296874-64.132813-101.457031-77.503907zm0 0" fill="#5c586f"/><path d="m498.433594.445312c7.339844-1.507812 14.960937.890626 20.0625 6.382813 21.976562 23.660156 74.664062 97.875 5.78125 211.914063l-127.300782-140.792969s36.296876-64.132813 101.457032-77.503907zm0 0" fill="#5c586f"/><path d="m546.882812 172.074219c-20.964843-44.480469-50.199218-79.628907-87.03125-104.558594-12.039062-8.148437-24.917968-15.210937-38.597656-21.199219-15.90625 16.851563-24.277344 31.632813-24.277344 31.632813l127.300782 140.792969c9.894531-16.390626 17.273437-31.953126 22.605468-46.667969zm0 0" fill="#4f4c5f"/><path d="m58.394531 218.742188 127.300781-140.792969s-8.371093-14.78125-24.277343-31.632813c-13.679688 5.988282-26.5625 13.050782-38.59375 21.199219-36.835938 24.925781-66.070313 60.078125-87.035157 104.558594 5.332032 14.714843 12.707032 30.277343 22.605469 46.667969zm0 0" fill="#4f4c5f"/><path d="m101.558594 55.042969c-6.058594-3.058594-13.4375-.871094-16.902344 4.964843-3.46875 5.84375-6.851562 12.742188-9.539062 20.609376-12.535157 36.664062-4.972657 78.304687 22.484374 123.757812l56.503907-99.390625c-1.632813-2.707031-20.992188-34.019531-52.546875-49.941406zm52.546875 49.9375v.003906c.0625.109375.109375.1875.117187.199219zm0 0" fill="#ffb2c1"/><path d="m428.5625 104.984375 56.507812 99.390625c27.457032-45.453125 35.019532-87.09375 22.484376-123.757812-2.6875-7.867188-6.070313-14.765626-9.542969-20.609376-3.464844-5.835937-10.839844-8.023437-16.898438-4.964843-31.554687 15.921875-50.917969 47.234375-52.550781 49.941406zm-.113281.199219c.007812-.011719.058593-.089844.121093-.199219l-.007812-.003906zm0 0" fill="#ffb2c1"/><g fill="#ff889e"><path d="m428.5625 104.980469-.113281.203125c.007812-.011719.058593-.089844.121093-.199219zm0 0"/><path d="m513.40625 117.539062c-15.222656-19.277343-32.746094-35.746093-52.46875-49.257812-19.503906 15.847656-31.121094 34.632812-32.367188 36.703125l56.5 99.390625c18.617188-30.824219 28.074219-59.886719 28.335938-86.835938zm0 0"/><path d="m154.105469 104.980469v.003906c.0625.109375.109375.1875.117187.199219zm0 0"/><path d="m69.261719 117.539062c.265625 26.949219 9.722656 56.011719 28.339843 86.835938l56.503907-99.390625c-1.246094-2.070313-12.871094-20.855469-32.367188-36.703125-19.726562 13.511719-37.25 29.980469-52.476562 49.257812zm0 0"/></g><path d="m584.332031 638.75c-16.597656-44.417969-32.84375-120.195312-32.84375-193.101562 0-148.996094-8.292969-385.484376-260.152343-385.484376-251.859376 0-260.148438 236.480469-260.148438 385.484376 0 72.90625-16.253906 148.683593-32.851562 193.101562zm0 0" fill="#de8957"/><path d="m310.613281 60.652344c-6.265625-.316406-12.683593-.488282-19.277343-.488282-251.859376 0-260.148438 236.480469-260.148438 385.484376 0 72.90625-16.253906 148.683593-32.851562 193.101562h38.558593c16.597657-44.417969 32.84375-120.195312 32.84375-193.101562 0-145.097657 7.878907-373.148438 240.875-384.996094zm0 0" fill="#c76d33"/><path d="m490.917969 564.355469c-14.691407-27.5625-45.800781-95.234375-45.800781-174.070313 0-103.207031-45.792969-142.164062-117.738282-117.578125l-19.832031 25.519531s23.429687 36.011719 23.429687 92.058594c0 201.609375 109.964844 199.445313 151.671876 191.375 7.894531-1.53125 12.046874-10.214844 8.269531-17.304687zm0 0" fill="#f1c6ad"/><path d="m91.753906 564.355469c14.691406-27.5625 45.796875-95.234375 45.796875-174.070313 0-103.207031 45.796875-142.164062 117.738281-117.578125l19.835938 25.519531s-23.429688 36.011719-23.429688 92.058594c0 201.609375-109.96875 199.445313-151.671874 191.375-7.890626-1.53125-12.046876-10.214844-8.269532-17.304687zm0 0" fill="#f1c6ad"/><path d="m183.59375 242.066406c-5.324219 0-9.636719-4.320312-9.636719-9.640625v-21.417969c0-5.320312 4.3125-9.640624 9.636719-9.640624s9.640625 4.320312 9.640625 9.640624v21.417969c0 5.320313-4.316406 9.640625-9.640625 9.640625zm0 0" fill="#423e4f"/><path d="m399.082031 242.066406c-5.328125 0-9.640625-4.320312-9.640625-9.640625v-21.417969c0-5.320312 4.3125-9.640624 9.640625-9.640624 5.320313 0 9.632813 4.320312 9.632813 9.640624v21.417969c0 5.320313-4.3125 9.640625-9.632813 9.640625zm0 0" fill="#423e4f"/><path d="m327.378906 272.644531c-.007812-3.53125-2.992187-6.34375-6.523437-6.34375h-59.039063c-3.535156 0-6.515625 2.8125-6.527344 6.34375v.0625c0 15.777344 16.136719 28.570313 36.046876 28.570313 19.910156 0 36.042968-12.792969 36.042968-28.570313 0-.019531 0-.042969 0-.0625zm0 0" fill="#423e4f"/></svg>