<svg height="682pt" viewBox="-37 -21 682 682.66696" width="682pt" xmlns="http://www.w3.org/2000/svg"><path d="m121.90625 24.425781v37.429688l-34.277344 13.3125 4.539063-31.402344zm0 0" fill="#f1c6ad"/><path d="m518.160156 75.167969-34.285156-21.035157v-29.695312l34.285156 19.328125zm0 0" fill="#f1c6ad"/><path d="m491.453125 533.0625c0-59.0625-84.421875-106.945312-188.5625-106.945312-104.132813 0-188.554687 47.882812-188.554687 106.945312 0 59.058594 84.421874 106.9375 188.554687 106.9375 104.140625 0 188.5625-47.878906 188.5625-106.9375zm0 0" fill="#423e4f"/><path d="m26.671875 480.316406c-26.125-102.070312 25.253906-357.972656 76.757813-433.917968 51.503906-75.945313 116.972656-35.792969 199.460937-35.792969 82.496094 0 147.964844-40.152344 199.46875 35.792969 51.503906 75.945312 102.882813 331.847656 76.757813 433.917968zm0 0" fill="#e8a882"/><path d="m142.058594 46.398438c20.335937-29.988282 42.851562-41.867188 67.726562-45.269532-40.730468-3.925781-75.976562.46875-106.355468 45.269532-51.503907 75.945312-102.882813 331.847656-76.757813 433.917968h38.632813c-26.128907-102.070312 25.25-357.972656 76.753906-433.917968zm0 0" fill="#de8957"/><path d="m353.804688 250.636719c38.617187 6.136719 75.933593 19.246093 109.925781 38.757812 47.164062 27.066407 87.0625 65.929688 115.386719 112.359375 36.253906 59.460938 17.457031 137.046875-41.992188 173.300782-47.246094 28.816406-105.957031 22.851562-146.265625-10.644532-12.332031-10.253906-26.300781-18.085937-41.203125-23.359375-14.902344-5.277343-30.734375-7.988281-46.757812-7.988281-32.527344 0-63.78125 11.695312-89.015626 32.210938-22.652343 18.410156-50.9375 28.242187-79.691406 28.242187-22.378906 0-45.015625-5.945313-65.523437-18.445313-59.449219-36.261718-78.25-113.859374-42.007813-173.300781 28.328125-46.445312 68.238282-85.300781 115.402344-112.375 33.988281-19.511719 71.308594-32.621093 109.925781-38.757812zm0 0" fill="#5c586f"/><path d="m159.941406 567.765625c-22.375 0-45.011718-5.949219-65.519531-18.453125-59.0625-36.027344-65.285156-138.265625-29.820313-197.890625-14.214843 15.484375-26.957031 32.332031-37.941406 50.339844-36.242187 59.449219-17.441406 137.046875 42.007813 173.308593 20.507812 12.503907 43.144531 18.445313 65.523437 18.445313 28.753906 0 57.039063-9.832031 79.691406-28.242187 2.929688-2.382813 5.949219-4.632813 9.027344-6.773438-22.230468 6.09375-46.660156 9.265625-62.96875 9.265625zm0 0" fill="#4f4c5f"/><g fill="#423e4f"><path d="m353.804688 250.636719c-2.054688 26.316406-24.066407 47.03125-50.914063 47.03125-26.839844 0-48.851563-20.714844-50.90625-47.03125 16.773437-2.671875 33.808594-4.035157 50.90625-4.035157 17.105469 0 34.128906 1.359376 50.914063 4.035157zm0 0"/><path d="m152.871094 432.394531c0 5.703125-4.617188 10.320313-10.316406 10.320313-5.699219 0-10.320313-4.617188-10.320313-10.320313 0-5.699219 4.621094-10.320312 10.320313-10.320312 5.699218 0 10.316406 4.621093 10.316406 10.320312zm0 0"/><path d="m132.234375 457.710938c0 5.699218-4.621094 10.316406-10.320313 10.316406-5.703124 0-10.320312-4.617188-10.320312-10.316406 0-5.699219 4.617188-10.324219 10.320312-10.324219 5.699219 0 10.320313 4.625 10.320313 10.324219zm0 0"/><path d="m173.515625 457.710938c0 5.699218-4.621094 10.316406-10.320313 10.316406-5.699218 0-10.316406-4.617188-10.316406-10.316406 0-5.699219 4.617188-10.324219 10.316406-10.324219 5.699219 0 10.320313 4.625 10.320313 10.324219zm0 0"/><path d="m473.554688 432.394531c0 5.703125-4.621094 10.320313-10.320313 10.320313s-10.316406-4.617188-10.316406-10.320313c0-5.699219 4.617187-10.320312 10.316406-10.320312s10.320313 4.621093 10.320313 10.320312zm0 0"/><path d="m494.195312 457.710938c0 5.699218-4.617187 10.316406-10.320312 10.316406-5.699219 0-10.320312-4.617188-10.320312-10.316406 0-5.699219 4.621093-10.324219 10.320312-10.324219 5.703125 0 10.320312 4.625 10.320312 10.324219zm0 0"/><path d="m452.910156 457.710938c0 5.699218-4.617187 10.316406-10.316406 10.316406s-10.320312-4.617188-10.320312-10.316406c0-5.699219 4.621093-10.324219 10.320312-10.324219s10.316406 4.625 10.316406 10.324219zm0 0"/></g><path d="m121.914062 24.4375c-41.183593 4.503906-65.625-47.875-106.652343 18.46875-41.03125 66.347656 5.839843 123.101562 39.582031 127.019531 33.742188 3.921875 65-59.875 32.785156-94.757812 5.210938-11.25 10.503906-20.964844 15.800782-28.769531 5.964843-8.800782 12.125-16.046876 18.476562-21.972657zm0 0" fill="#f1c6ad"/><path d="m483.875 24.4375c41.183594 4.503906 65.625-47.875 106.652344 18.46875 41.03125 66.347656-5.839844 123.101562-39.582032 127.019531-33.742187 3.921875-65-59.875-32.785156-94.757812-5.210937-11.25-10.503906-20.964844-15.800781-28.769531-5.964844-8.800782-12.125-16.046876-18.476563-21.972657zm0 0" fill="#f1c6ad"/><path d="m410.675781 191.234375c-20.011719 0-40.023437-4.628906-58.261719-13.878906-31.007812-15.738281-68.03125-15.738281-99.039062 0-36.480469 18.507812-80.039062 18.507812-116.519531 0-4.753907-2.417969-6.652344-8.230469-4.242188-12.984375 2.417969-4.761719 8.226563-6.65625 12.984375-4.242188 31.011719 15.730469 68.03125 15.730469 99.039063 0 36.476562-18.511718 80.03125-18.511718 116.515625 0 31.007812 15.730469 68.035156 15.730469 99.039062 0 4.75-2.414062 10.570313-.515625 12.984375 4.242188 2.410157 4.753906.511719 10.566406-4.242187 12.984375-18.238282 9.25-38.25 13.878906-58.257813 13.878906zm0 0" fill="#de8957"/><path d="m379.246094 123.828125c-14.609375 0-29.226563-3.378906-42.546875-10.136719-21.164063-10.742187-46.4375-10.742187-67.609375 0-26.640625 13.519532-58.453125 13.515625-85.09375 0-4.757813-2.417968-6.65625-8.226562-4.242188-12.984375 2.410156-4.753906 8.226563-6.652343 12.980469-4.242187 21.167969 10.742187 46.441406 10.742187 67.613281 0 26.640625-13.519532 58.453125-13.519532 85.09375 0 21.167969 10.742187 46.441406 10.742187 67.613282 0 4.75-2.410156 10.566406-.511719 12.980468 4.242187 2.414063 4.757813.515625 10.566407-4.242187 12.984375-13.320313 6.757813-27.933594 10.136719-42.546875 10.136719zm0 0" fill="#de8957"/><path d="m160.40625 231.976562c-5.335938 0-9.65625-4.324218-9.65625-9.65625v-15.277343c0-5.332031 4.320312-9.660157 9.65625-9.660157 5.332031 0 9.660156 4.328126 9.660156 9.660157v15.277343c0 5.332032-4.328125 9.65625-9.660156 9.65625zm0 0" fill="#423e4f"/><path d="m156.113281 257.050781h-20.664062c-5.335938 0-9.65625-4.324219-9.65625-9.65625 0-5.339843 4.320312-9.660156 9.65625-9.660156h20.664062c5.339844 0 9.660157 4.320313 9.660157 9.660156 0 5.332031-4.320313 9.65625-9.660157 9.65625zm0 0" fill="#ff889e"/><path d="m445.386719 231.976562c-5.335938 0-9.65625-4.324218-9.65625-9.65625v-15.277343c0-5.332031 4.320312-9.660157 9.65625-9.660157 5.332031 0 9.660156 4.328126 9.660156 9.660157v15.277343c0 5.332032-4.328125 9.65625-9.660156 9.65625zm0 0" fill="#423e4f"/><path d="m470.339844 257.050781h-20.664063c-5.339843 0-9.660156-4.324219-9.660156-9.65625 0-5.339843 4.320313-9.660156 9.660156-9.660156h20.664063c5.335937 0 9.65625 4.320313 9.65625 9.660156 0 5.332031-4.324219 9.65625-9.65625 9.65625zm0 0" fill="#ff889e"/></svg>