<svg height="682pt" viewBox="-68 -21 682 682.66776" width="682pt" xmlns="http://www.w3.org/2000/svg"><path d="m112.691406 617.4375h314.007813l47.074219-29.980469v-161.40625l10.988281-203.65625-70.984375-149.570312h-288.164063l-71.824219 149.570312 36.332032 193.515625-36.332032 126.757813 27.039063 74.769531zm0 0" fill="#f39c18"/><path d="m132.742188 416.464844c59.648437 77.492187 50.675781 98.074218 53.648437 145.589844 2.75 43.875 39.347656 77.945312 83.304687 77.945312 43.957032 0 80.558594-34.070312 83.300782-77.945312 2.976562-47.515626-5.996094-68.097657 53.652344-145.589844h41.832031l36.28125-194.070313-70.984375-149.570312h-288.164063l-71.828125 149.570312 36.335938 193.515625zm0 0" fill="#f9e09d"/><path d="m303.121094 502.996094c-.011719-3.277344-2.773438-5.886719-6.050782-5.886719h-54.75c-3.273437 0-6.042968 2.609375-6.050781 5.886719v.0625c0 14.625 14.964844 26.488281 33.421875 26.488281 18.460938 0 33.429688-11.863281 33.429688-26.488281 0-.023438 0-.042969 0-.0625zm0 0" fill="#423e4f"/><path d="m506.679688 392.253906c0-53.242187 29.207031-53.242187 29.207031-173.660156 0-228.164062-163.519531-245.910156-266.191407-195.207031-102.675781-50.703125-266.191406-32.957031-266.191406 195.207031 0 120.417969 29.210938 120.417969 29.210938 173.660156 0 53.234375-35.546875 72.25-35.546875 149.566406 0 21.710938 4.496093 45.714844 10.960937 69.015626 4.800782 17.285156 20.65625 29.164062 38.59375 29.164062h49.125c11.75 0 20.164063-11.292969 16.84375-22.5625-7.460937-25.332031-12.851562-51.851562-12.851562-75.617188 0-77.316406 35.546875-96.332031 35.546875-149.574218 0-53.234375-29.210938-53.234375-29.210938-173.65625 0-88.003906 82.554688-114.089844 148.109375-75.253906 9.492188 5.625 21.324219 5.625 30.8125 0 65.5625-38.835938 148.109375-12.75 148.109375 75.253906 0 120.421875-29.203125 120.421875-29.203125 173.65625 0 53.242187 35.542969 72.257812 35.542969 149.574218 0 23.765626-5.386719 50.28125-12.851563 75.617188-3.320312 11.269531 5.097657 22.5625 16.84375 22.5625h49.121094c17.941406 0 33.800782-11.878906 38.597656-29.164062 6.464844-23.300782 10.964844-47.304688 10.964844-69.015626 0-77.316406-35.542968-96.332031-35.542968-149.566406zm0 0" fill="#f8b459"/><path d="m46.761719 610.835938c-6.46875-23.300782-10.960938-47.304688-10.960938-69.015626 0-77.316406 35.542969-96.332031 35.542969-149.566406 0-53.242187-29.207031-53.242187-29.207031-173.660156 0-150.765625 71.398437-209.652344 149.460937-217.628906-91.375-8.859375-188.09375 42.152344-188.09375 217.628906 0 120.417969 29.207032 120.417969 29.207032 173.660156 0 53.234375-35.542969 72.25-35.542969 149.566406 0 21.710938 4.496093 45.714844 10.960937 69.015626 4.800782 17.285156 20.65625 29.164062 38.59375 29.164062h38.632813c-17.9375 0-33.796875-11.878906-38.59375-29.164062zm0 0" fill="#f39c18"/><path d="m309.476562 549.546875c-4.019531-3.511719-10.117187-3.101563-13.628906.917969-2.273437 2.601562-5.714844 4.089844-9.441406 4.089844s-7.167969-1.488282-9.4375-4.089844c-1.816406-2.070313-4.53125-3.292969-7.28125-3.292969s-5.453125 1.222656-7.265625 3.292969c-2.269531 2.601562-5.714844 4.089844-9.4375 4.089844-3.726563 0-7.167969-1.488282-9.445313-4.089844-3.511718-4.019532-9.609374-4.429688-13.628906-.917969-4.011718 3.515625-4.421875 9.613281-.910156 13.628906 5.941406 6.796875 14.679688 10.695313 23.984375 10.695313 6.003906 0 11.769531-1.632813 16.707031-4.617188 4.941406 2.984375 10.707032 4.617188 16.714844 4.617188 9.300781 0 18.042969-3.894532 23.984375-10.695313 3.511719-4.015625 3.101563-10.117187-.914063-13.628906zm0 0" fill="#423e4f"/><path d="m186.265625 317.121094c-5.332031 0-9.660156 4.324218-9.660156 9.65625v19.863281c0 5.332031 4.328125 9.65625 9.660156 9.65625 5.335937 0 9.65625-4.324219 9.65625-9.65625v-19.863281c0-5.332032-4.320313-9.65625-9.65625-9.65625zm0 0" fill="#423e4f"/><path d="m184.648438 363.785156h-20.003907c-5.332031 0-9.660156 4.328125-9.660156 9.660156 0 5.335938 4.328125 9.65625 9.660156 9.65625h20.003907c5.335937 0 9.65625-4.320312 9.65625-9.65625 0-5.332031-4.320313-9.660156-9.65625-9.660156zm0 0" fill="#ff889e"/><path d="m353.125 356.296875c5.335938 0 9.65625-4.324219 9.65625-9.65625v-19.863281c0-5.332032-4.320312-9.65625-9.65625-9.65625-5.332031 0-9.660156 4.324218-9.660156 9.65625v19.863281c0 5.332031 4.328125 9.65625 9.660156 9.65625zm0 0" fill="#423e4f"/><path d="m374.75 363.785156h-20.007812c-5.332032 0-9.660157 4.328125-9.660157 9.660156 0 5.335938 4.328125 9.65625 9.660157 9.65625h20.007812c5.332031 0 9.660156-4.320312 9.660156-9.65625 0-5.332031-4.328125-9.660156-9.660156-9.660156zm0 0" fill="#ff889e"/></svg>