<svg height="681pt" viewBox="-21 -122 681.3345 681" width="681pt" xmlns="http://www.w3.org/2000/svg"><path d="m637.464844 335.28125c-9.238282-34.824219-26.757813-111.6875-26.757813-194.097656 0-111.957032-95.398437-140.347656-154.03125-99.210938l23.050781 318.25c66.867188 66.757813 120.742188 36.539063 146.617188 13.027344 10.523438-9.558594 14.773438-24.230469 11.121094-37.96875zm0 0" fill="#4f4c5f"/><path d="m1.28125 335.28125c9.246094-34.824219 26.765625-111.6875 26.765625-194.097656 0-111.957032 95.398437-140.347656 154.03125-99.210938l-23.050781 318.25c-66.867188 66.757813-120.742188 36.539063-146.625 13.027344-10.515625-9.558594-14.765625-24.230469-11.121094-37.96875zm0 0" fill="#4f4c5f"/><path d="m159.027344 360.222656 23.050781-318.25c-12.046875-8.449218-25.644531-13.960937-39.644531-16.421875-10.269532 9.742188-19.753906 20.304688-28.269532 31.589844-33.886718 44.871094-51.792968 98.386719-51.792968 154.738281 0 29.011719 4.804687 57.496094 14.28125 84.664063 11.605468 33.269531 29.628906 63.007812 52.382812 88.042969 9.648438-6.070313 19.664063-14.054688 29.992188-24.363282zm0 0" fill="#423e4f"/><path d="m562.101562 296.546875c9.476563-27.171875 14.28125-55.65625 14.28125-84.667969 0-56.351562-17.910156-109.867187-51.792968-154.746094-8.519532-11.277343-18-21.839843-28.265625-31.582031-14.003907 2.460938-27.601563 7.96875-39.648438 16.421875l23.050781 318.25c10.328126 10.308594 20.339844 18.300782 29.992188 24.363282 22.75-25.03125 40.777344-54.773438 52.382812-88.039063zm0 0" fill="#423e4f"/><path d="m525.691406 283.847656c-29.742187 85.292969-110.886718 146.480469-206.316406 146.480469-95.425781 0-176.570312-61.1875-206.3125-146.480469l31.871094-203.476562c39.882812-52.808594 103.175781-86.941406 174.441406-86.941406 71.269531 0 134.566406 34.132812 174.445312 86.941406zm0 0" fill="#e7e7e7"/><path d="m338.65625 429.480469c-86.960938-7.601563-159.316406-66.144531-187.042969-145.632813-7.859375-22.542968-12.128906-46.753906-12.128906-71.96875 0-49.375 16.378906-94.914062 44.007813-131.507812 36.242187-47.992188 91.832031-80.558594 155.164062-86.09375-1.742188-.148438-3.484375-.28125-5.234375-.394532-4.667969-.316406-9.363281-.453124-14.046875-.453124-46.765625 0-90.105469 14.699218-125.640625 39.734374-18.351563 12.921876-35.121094 29.097657-48.800781 47.207032l-31.871094 203.476562c6.042969 17.324219 14.203125 33.65625 24.175781 48.679688 17.597657 26.515625 41.050781 49.164062 68.203125 65.773437 33.171875 20.320313 72.1875 32.027344 113.933594 32.027344 1.585938 0 14.605469-1.191406 19.28125-.847656zm0 0" fill="#c7c5cb"/><path d="m277.1875 188.097656c0 60.742188-49.230469 109.992188-109.984375 109.992188-19.675781 0-38.167969-5.171875-54.140625-14.242188-7.867188-22.542968-12.136719-46.75-12.136719-71.960937 0-49.382813 16.378907-94.921875 44.007813-131.515625 7.191406-1.476563 14.636718-2.261719 22.269531-2.261719 60.753906 0 109.984375 49.234375 109.984375 109.988281zm0 0" fill="#5c586f"/><path d="m537.828125 211.878906c0 25.214844-4.269531 49.425782-12.136719 71.96875-15.972656 9.070313-34.464844 14.234375-54.140625 14.234375-60.75 0-109.984375-49.242187-109.984375-109.984375 0-60.753906 49.226563-109.988281 109.984375-109.988281 7.625 0 15.082031.777344 22.269531 2.261719 27.628907 36.59375 44.007813 82.132812 44.007813 131.507812zm0 0" fill="#5c586f"/><path d="m185.945312 206.425781c-5.320312 0-9.636718-4.316406-9.636718-9.636719v-16.167968c0-5.320313 4.316406-9.636719 9.636718-9.636719 5.328126 0 9.640626 4.316406 9.640626 9.636719v16.167968c0 5.320313-4.3125 9.636719-9.640626 9.636719zm0 0" fill="#423e4f"/><path d="m182.078125 229.074219h-18.671875c-5.320312 0-9.636719-4.320313-9.636719-9.640625 0-5.328125 4.316407-9.640625 9.636719-9.640625h18.671875c5.320313 0 9.636719 4.3125 9.636719 9.640625 0 5.320312-4.316406 9.640625-9.636719 9.640625zm0 0" fill="#ffb2c1"/><path d="m452.800781 206.425781c-5.320312 0-9.636719-4.316406-9.636719-9.636719v-16.167968c0-5.320313 4.316407-9.636719 9.636719-9.636719 5.328125 0 9.640625 4.316406 9.640625 9.636719v16.167968c0 5.320313-4.3125 9.636719-9.640625 9.636719zm0 0" fill="#423e4f"/><path d="m475.339844 229.074219h-18.664063c-5.320312 0-9.636719-4.320313-9.636719-9.640625 0-5.328125 4.316407-9.640625 9.636719-9.640625h18.664063c5.328125 0 9.640625 4.3125 9.640625 9.640625 0 5.320312-4.3125 9.640625-9.640625 9.640625zm0 0" fill="#ffb2c1"/><path d="m395.847656 290.777344c0-23.503906-34.257812-42.558594-76.519531-42.558594-42.257813 0-76.515625 19.054688-76.515625 42.558594s34.257812 42.554687 76.515625 42.554687c42.261719 0 76.519531-19.050781 76.519531-42.554687zm0 0" fill="#423e4f"/><path d="m359.5625 190.726562c27.832031 8.273438 51.945312 25.105469 68.097656 48.339844 14.273438 20.558594 9.191406 48.789063-11.355468 63.078125-14.835938 10.308594-33.691407 10.523438-48.40625 2.105469-14.8125-8.496094-31.398438-13.472656-48.472657-13.472656h-.097656c-16.792969 0-33.328125 4.421875-47.742187 13.03125-7.074219 4.234375-15.164063 6.433594-23.324219 6.433594-8.917969 0-17.929688-2.621094-25.804688-8.097657-20.554687-14.277343-25.644531-42.519531-11.363281-63.0625 16.152344-23.25 40.265625-40.078125 68.09375-48.355469zm0 0" fill="#4f4c5f"/><path d="m359.5625 190.726562c-2.804688 19.675782-19.726562 34.8125-40.1875 34.8125s-37.382812-15.136718-40.1875-34.8125c12.753906-3.789062 26.28125-5.785156 40.1875-5.785156 13.910156 0 27.4375 1.996094 40.1875 5.785156zm0 0" fill="#423e4f"/><path d="m156.949219 297.605469c-1.921875-4.511719-3.707031-9.097657-5.335938-13.757813-7.863281-22.542968-12.132812-46.753906-12.132812-71.96875 0-49.375 16.382812-94.914062 44.011719-131.507812.238281-.324219.484374-.628906.730468-.945313-5.546875-.863281-11.230468-1.316406-17.019531-1.316406-7.632813 0-15.082031.777344-22.269531 2.261719-6.90625 9.144531-13.109375 18.851562-18.535156 29.039062-28.300782 53.195313-33.1875 117.558594-13.339844 174.433594 13.171875 7.480469 28.054687 12.296875 43.890625 13.761719zm0 0" fill="#4f4c5f"/></svg>