<svg height="681pt" viewBox="-21 -33 681.33597 681" width="681pt" xmlns="http://www.w3.org/2000/svg"><path d="m495.371094 55.027344c69.625-60.457032 139.671875-8.367188 143.265625 44.617187 3.589843 52.984375-76.199219 19.890625-76.199219 19.890625zm0 0" fill="#c76d33"/><path d="m294.492188.335938c-157.253907 12.644531-280.929688 144.28125-280.929688 304.800781 0 89.3125 38.300781 169.667969 99.347656 225.566406h134.476563l71.976562-182.296875zm0 0" fill="#de8957"/><path d="m344.253906.335938c157.261719 12.644531 280.933594 144.28125 280.933594 304.800781 0 89.3125-38.296875 169.667969-99.34375 225.566406h-134.480469l-71.972656-182.296875zm0 0" fill="#de8957"/><path d="m52.121094 305.136719c0-147.28125 104.121094-270.230469 242.765625-299.28125l-.394531-5.523438c-54.46875 4.378907-107.007813 23.722657-151.449219 55.023438l.335937-.328125c-69.621094-60.457032-139.667968-8.367188-143.261718 44.617187-3.589844 52.984375 76.199218 19.894531 76.199218 19.894531l.476563-.457031c-40.558594 53.085938-63.230469 118.714844-63.230469 186.054688 0 72.566406 25.285156 139.21875 67.511719 191.644531 9.734375 12.089844 20.386719 23.441406 31.835937 33.921875h38.558594c-61.054688-55.90625-99.347656-136.253906-99.347656-225.566406zm0 0" fill="#c76d33"/><path d="m395.6875 316.464844-4.324219 214.238281h-143.976562l-4.320313-214.238281c46.226563-100.980469-108.617187-127.152344 51.425782-316.121094v-.007812c8.207031-.664063 16.492187-1 24.871093-1 8.375 0 16.6875.335937 24.894531 1v.007812c160.046876 188.972656 5.195313 215.140625 51.429688 316.121094zm0 0" fill="#e7e7e7"/><path d="m288.78125 7.191406c14.394531-3.324218 29.175781-5.644531 44.269531-6.855468 1.863281-.152344 3.734375-.2773442 5.605469-.3945318-6.425781-.4023442-12.863281-.6054682-19.292969-.6054682-8.296875 0-16.605469.292968-24.871093 1.007812-1.953126 2.3125-3.847657 4.585938-5.710938 6.847656zm0 0" fill="#c7c5cb"/><path d="m512.007812 507.195312c0-59.109374-86.253906-107.027343-192.644531-107.027343-106.394531 0-192.648437 47.917969-192.648437 107.027343 0 59.113282 86.253906 107.03125 192.648437 107.03125 106.390625 0 192.644531-47.917968 192.644531-107.03125zm0 0" fill="#e7e7e7"/><path d="m362.480469 308.707031c77.632812 12.890625 146.765625 60.117188 186.574219 129.628907 27.734374 48.425781 10.964843 110.152343-37.453126 137.886718-15.839843 9.0625-33.097656 13.375-50.121093 13.375-35.039063 0-69.09375-18.25-87.761719-50.835937-11.15625-19.46875-31.984375-31.566407-54.355469-31.566407-22.429687 0-43.28125 12.140626-54.421875 31.671876-18.628906 32.679687-52.753906 51.011718-87.859375 51.011718-16.96875 0-34.164062-4.28125-49.945312-13.28125-48.472657-27.644531-65.363281-89.339844-37.734375-137.804687 39.792968-69.777344 109.019531-117.179688 186.839844-130.101563zm0 0" fill="#c7c5cb"/><path d="m202.789062 564.179688c-16.976562 0-34.164062-4.285157-49.953124-13.285157-48.464844-27.640625-65.359376-89.335937-37.726563-137.808593 8.742187-15.324219 18.902344-29.574219 30.265625-42.613282-22.054688 19.214844-41.078125 42.199219-55.972656 68.320313-27.628906 48.472656-10.738282 110.167969 37.734375 137.808593 15.78125 8.996094 32.972656 13.277344 49.945312 13.277344 32.347657 0 63.847657-15.574218 83.175781-43.585937-16.914062 11.652343-37.023437 17.886719-57.46875 17.886719zm0 0" fill="#b2b0bc"/><path d="m362.480469 308.707031c-1.816407 22.226563-20.417969 39.699219-43.117188 39.699219-22.703125 0-41.316406-17.472656-43.121093-39.714844 14.128906-2.34375 28.542968-3.554687 43.121093-3.554687 14.574219 0 28.988281 1.210937 43.117188 3.570312zm0 0" fill="#423e4f"/><path d="m171.648438 294.875c-5.324219 0-9.640626-4.316406-9.640626-9.636719v-26.734375c0-5.328125 4.316407-9.640625 9.640626-9.640625 5.320312 0 9.636718 4.3125 9.636718 9.640625v26.734375c0 5.324219-4.316406 9.636719-9.636718 9.636719zm0 0" fill="#423e4f"/><path d="m467.105469 294.875c-5.320313 0-9.640625-4.316406-9.640625-9.636719v-26.734375c0-5.328125 4.320312-9.640625 9.640625-9.640625 5.324219 0 9.640625 4.3125 9.640625 9.640625v26.734375c0 5.324219-4.316406 9.636719-9.640625 9.636719zm0 0" fill="#423e4f"/><path d="m153.917969 321.894531h-21.261719c-5.328125 0-9.640625-4.316406-9.640625-9.640625 0-5.320312 4.3125-9.636718 9.640625-9.636718h21.261719c5.320312 0 9.636719 4.316406 9.636719 9.636718 0 5.324219-4.316407 9.640625-9.636719 9.640625zm0 0" fill="#ffb2c1"/><path d="m506.097656 321.894531h-21.261718c-5.324219 0-9.640626-4.316406-9.640626-9.640625 0-5.320312 4.316407-9.636718 9.640626-9.636718h21.261718c5.320313 0 9.636719 4.316406 9.636719 9.636718 0 5.324219-4.316406 9.640625-9.636719 9.640625zm0 0" fill="#ffb2c1"/><g fill="#423e4f"><path d="m189.15625 460.210938c0 5.210937-4.21875 9.429687-9.429688 9.429687-5.203124 0-9.429687-4.21875-9.429687-9.429687 0-5.207032 4.226563-9.429688 9.429687-9.429688 5.210938 0 9.429688 4.222656 9.429688 9.429688zm0 0"/><path d="m203.753906 481.542969c0 5.203125-4.226562 9.429687-9.429687 9.429687-5.210938 0-9.429688-4.226562-9.429688-9.429687 0-5.210938 4.21875-9.429688 9.429688-9.429688 5.203125 0 9.429687 4.21875 9.429687 9.429688zm0 0"/><path d="m174.566406 481.542969c0 5.203125-4.226562 9.429687-9.429687 9.429687-5.210938 0-9.429688-4.226562-9.429688-9.429687 0-5.210938 4.21875-9.429688 9.429688-9.429688 5.203125 0 9.429687 4.21875 9.429687 9.429688zm0 0"/><path d="m468.453125 460.210938c0 5.210937-4.222656 9.429687-9.429687 9.429687-5.207032 0-9.429688-4.21875-9.429688-9.429687 0-5.207032 4.222656-9.429688 9.429688-9.429688 5.207031 0 9.429687 4.222656 9.429687 9.429688zm0 0"/><path d="m453.859375 481.542969c0 5.203125-4.21875 9.429687-9.429687 9.429687-5.210938 0-9.429688-4.226562-9.429688-9.429687 0-5.210938 4.21875-9.429688 9.429688-9.429688 5.210937 0 9.429687 4.21875 9.429687 9.429688zm0 0"/><path d="m483.046875 481.542969c0 5.203125-4.222656 9.429687-9.429687 9.429687-5.207032 0-9.429688-4.226562-9.429688-9.429687 0-5.210938 4.222656-9.429688 9.429688-9.429688 5.207031 0 9.429687 4.21875 9.429687 9.429688zm0 0"/></g></svg>