<svg height="681pt" viewBox="-21 -37 681.33058 681" width="681pt" xmlns="http://www.w3.org/2000/svg"><path d="m65.699219 21.855469c-32.644531 17.894531-30.101563 60.738281-53.191407 86.523437-15.824218 17.664063-17.742187 57.671875.667969 74.691406 11.023438 10.179688 27.058594 7.621094 40.351563 4.394532 18.855468-4.570313 37.191406-12.625 54.199218-21.890625l34.984376-120.296875c-19.1875-21.085938-48.964844-38.789063-77.011719-23.421875zm0 0" fill="#4f4c5f"/><path d="m573.046875 21.855469c32.648437 17.894531 30.101563 60.738281 53.191406 86.523437 15.824219 17.664063 17.746094 57.671875-.671875 74.691406-11.019531 10.179688-27.050781 7.621094-40.351562 4.394532-18.847656-4.570313-37.1875-12.625-54.195313-21.890625l-34.988281-120.296875c19.195312-21.085938 48.964844-38.789063 77.015625-23.421875zm0 0" fill="#4f4c5f"/><path d="m542.4375 42.972656c-6.476562-6.609375-13.410156-12.789062-20.757812-18.550781-9.621094 5.398437-18.394532 12.882813-25.648438 20.855469l34.984375 120.296875c17.011719 9.261719 35.351563 17.316406 54.199219 21.890625 8.363281 2.027344 17.808594 3.792968 26.410156 2.285156-9.878906-55.375-29.839844-106.640625-69.1875-146.777344zm0 0" fill="#423e4f"/><path d="m142.710938 45.277344c-7.253907-7.972656-16.023438-15.457032-25.640626-20.855469-7.351562 5.761719-14.285156 11.941406-20.761718 18.550781-39.347656 40.136719-59.308594 91.402344-69.183594 146.785156 8.59375 1.5 18.042969-.265624 26.402344-2.292968 18.855468-4.570313 37.191406-12.625 54.199218-21.890625zm0 0" fill="#423e4f"/><path d="m94.652344 540.878906c-26.515625-25.867187-42.960938-61.210937-42.960938-108.988281 0-181.019531-38.285156-432.804687 267.683594-432.804687s267.683594 251.785156 267.683594 432.804687c0 47.777344-16.449219 83.121094-42.964844 108.988281zm0 0" fill="#5c586f"/><path d="m94.652344 540.878906h38.558594c-26.515626-25.867187-42.964844-61.210937-42.964844-108.988281 0-177.121094-36.640625-421.988281 248.371094-432.449219-2.84375-.109375-5.730469-.183594-8.632813-.246094-3.539063-.066406-7.074219-.109374-10.609375-.109374-81.273438 0-138.257812 17.761718-178.121094 47.25-53.710937 39.726562-76.976562 104.597656-85.542968 169.0625-7.609376 57.273437-5.644532 115.328124-4.539063 172.925781.613281 32.074219-1.761719 64.84375 8.230469 95.835937 6.921875 21.453125 19.125 40.988282 35.25 56.71875zm0 0" fill="#4f4c5f"/><path d="m361.636719 314.042969c22.726562 9.855469 41.320312 27.402343 52.53125 49.367187h.03125c42.902343 87.042969 164.664062-18.699218 129.894531 177.46875-52.058594 50.796875-143 65.058594-224.71875 65.058594-81.722656 0-172.660156-14.261719-224.722656-65.058594-34.765625-196.167968 86.992187-90.425781 129.902344-177.46875h.023437c11.21875-21.957031 29.804687-39.511718 52.535156-49.367187zm0 0" fill="#de8957"/><path d="m328.6875 605.867188c3.269531-.046876 6.542969-.113282 9.8125-.207032.050781-.003906.097656-.003906.152344-.003906-76.402344-2.179688-157.445313-17.945312-205.441406-64.777344-22.5625-22.011718-37.828126-50.894531-41.882813-88.449218-4.375 19.152343-4.003906 47.089843 3.324219 88.449218 14.644531 14.289063 32.363281 25.683594 52.085937 34.683594 11.1875 5.109375 22.769531 9.324219 34.542969 12.871094 43.238281 12.992187 92.128906 17.503906 138.09375 17.503906.050781 0 6.246094-.023438 9.3125-.070312zm0 0" fill="#c76d33"/><path d="m361.636719 314.042969c-4.03125 19.640625-21.417969 34.417969-42.261719 34.417969s-38.230469-14.777344-42.261719-34.417969c12.9375-5.621094 27.242188-8.738281 42.261719-8.738281s29.320312 3.117187 42.261719 8.738281zm0 0" fill="#423e4f"/><path d="m207.386719 230.554688-19.492188-5.371094c-10.886719-3-22.144531 3.394531-25.148437 14.28125-2.996094 10.886718 3.398437 22.136718 14.28125 25.140625l19.496094 5.371093c10.882812 3 22.140624-3.394531 25.140624-14.28125 3.003907-10.886718-3.390624-22.136718-14.277343-25.140624zm0 0" fill="#de8957"/><path d="m431.363281 230.554688 19.492188-5.371094c10.886719-3 22.144531 3.394531 25.140625 14.28125 3.003906 10.886718-3.390625 22.136718-14.277344 25.140625l-19.496094 5.371093c-10.886718 3-22.140625-3.394531-25.140625-14.28125-3-10.886718 3.394531-22.136718 14.28125-25.140624zm0 0" fill="#de8957"/><path d="m365.820312 375.867188c-4.011718-3.503907-10.097656-3.09375-13.601562.910156-3.097656 3.542968-7.761719 5.582031-12.792969 5.582031s-9.695312-2.039063-12.796875-5.582031c-1.816406-2.082032-4.5-3.285156-7.265625-3.285156-2.746093 0-5.4375 1.214843-7.25 3.285156-3.09375 3.542968-7.757812 5.582031-12.792969 5.582031-5.035156 0-9.699218-2.039063-12.796874-5.582031-3.503907-4.003906-9.589844-4.414063-13.601563-.910156-4.003906 3.503906-4.414063 9.589843-.910156 13.601562 6.757812 7.726562 16.710937 12.167969 27.308593 12.167969 7.261719 0 14.214844-2.085938 20.054688-5.882813 5.832031 3.796875 12.792969 5.882813 20.050781 5.882813 10.597657 0 20.550781-4.441407 27.3125-12.167969 3.5-4.011719 3.09375-10.097656-.917969-13.601562zm0 0" fill="#423e4f"/><path d="m191.550781 289.414062c-5.324219 0-9.636719 4.316407-9.636719 9.640626v18.425781c0 5.320312 4.3125 9.636719 9.636719 9.636719s9.640625-4.316407 9.640625-9.636719v-18.425781c0-5.324219-4.316406-9.640626-9.640625-9.640626zm0 0" fill="#423e4f"/><path d="m181.746094 335h-21.273438c-5.328125 0-9.640625 4.3125-9.640625 9.636719s4.3125 9.636719 9.640625 9.636719h21.273438c5.324218 0 9.636718-4.3125 9.636718-9.636719s-4.3125-9.636719-9.636718-9.636719zm0 0" fill="#ffb2c1"/><path d="m456.835938 317.480469v-18.425781c0-5.324219-4.320313-9.640626-9.640626-9.640626-5.320312 0-9.640624 4.316407-9.640624 9.640626v18.425781c0 5.320312 4.320312 9.636719 9.640624 9.636719 5.320313 0 9.640626-4.316407 9.640626-9.636719zm0 0" fill="#423e4f"/><path d="m478.277344 335h-21.277344c-5.320312 0-9.640625 4.3125-9.640625 9.636719s4.320313 9.636719 9.640625 9.636719h21.277344c5.324218 0 9.640625-4.3125 9.640625-9.636719s-4.316407-9.636719-9.640625-9.636719zm0 0" fill="#ffb2c1"/></svg>