<svg height="682pt" viewBox="-109 -21 682 682.66739" width="682pt" xmlns="http://www.w3.org/2000/svg"><path d="m373.699219 3.550781c-3.613281-3.769531-9.296875-4.664062-13.828125-2.074219-17.714844 10.089844-61.1875 39.59375-79.660156 94.492188l152.921874 195.480469s43.621094-180.273438-59.433593-287.898438zm0 0" fill="#ffb25a"/><path d="m79.8125 3.550781c3.609375-3.769531 9.292969-4.664062 13.828125-2.074219 17.714844 10.089844 61.1875 39.59375 79.65625 94.492188l-152.921875 195.480469s-43.621094-180.273438 59.4375-287.898438zm0 0" fill="#ffb25a"/><path d="m442.28125 205.21875c-5.265625-11.292969-11.027344-22.355469-17.332031-33.039062-33.105469-56.125-76.601563-93.707032-127.921875-111.25-6.566406 10.292968-12.40625 21.933593-16.816406 35.039062l152.921874 195.480469s8.796876-36.390625 9.148438-86.230469zm0 0" fill="#ff9c20"/><path d="m28.558594 172.179688c-6.300782 10.683593-12.0625 21.746093-17.335938 33.039062.351563 49.839844 9.152344 86.230469 9.152344 86.230469l152.921875-195.476563c-4.40625-13.105468-10.253906-24.75-16.820313-35.042968-51.316406 17.542968-94.808593 55.125-127.917968 111.25zm0 0" fill="#ff9c20"/><path d="m391.207031 281.40625c.359375-1.488281 31.285157-136.472656-31.585937-227.109375-13.988282 11.972656-39.398438 56.71875-47.871094 81.910156zm0 0" fill="#ffb2c1"/><path d="m62.300781 281.40625c-.355469-1.488281-31.28125-136.472656 31.589844-227.109375 13.988281 11.972656 39.398437 56.71875 47.871094 81.910156zm0 0" fill="#ffb2c1"/><path d="m63.234375 124.292969c-19.195313 77.429687-1.207031 155.980469-.933594 157.113281l79.460938-145.199219c-5.09375-15.148437-16.316407-37.359375-27.492188-55.269531-18.398437 11.425781-35.457031 25.914062-51.035156 43.355469zm0 0" fill="#ff889e"/><path d="m339.242188 80.9375c-11.183594 17.910156-22.398438 40.121094-27.496094 55.265625l79.460937 145.203125c.269531-1.132812 18.261719-79.6875-.929687-157.113281-15.578125-17.441407-32.636719-31.933594-51.035156-43.355469zm0 0" fill="#ff889e"/><path d="m453.546875 388.996094c-17.40625-124.722656-71.976563-300.832032-226.792969-300.832032-154.8125 0-209.382812 176.109376-226.7890622 300.832032-4.2695318 30.589844-9.4023438 62.53125-.8007818 92.871094 8.792969 31.015624 32.039063 51.613281 59.207032 66.960937 45.003906 25.425781 104.453125 38.042969 139.535156 78.246094 7.246094 8.300781 17.828125 12.925781 28.847656 12.925781 11.023438 0 21.601563-4.625 28.847656-12.925781 35.085938-40.203125 94.53125-52.824219 139.539063-78.246094 27.167969-15.351563 50.414063-35.953125 59.203125-66.960937 8.601562-30.339844 3.472656-62.28125-.796875-92.871094zm0 0" fill="#5c586f"/><path d="m48.097656 507.65625c-8.597656-33.328125-3.472656-68.425781.800782-102.039062 14.609374-115.046876 55.433593-269.863282 159.765624-316.589844-141.015624 13.179687-191.992187 180.234375-208.6992182 299.96875-4.2695318 30.589844-9.4023438 62.53125-.8007818 92.871094 8.792969 31.007812 32.039063 51.609374 59.207032 66.960937 6.449218 3.644531 13.203125 7.023437 20.136718 10.257813-14.003906-13.664063-24.96875-30.355469-30.410156-51.429688zm0 0" fill="#4f4c5f"/><path d="m226.753906 535.914062c-80.339844 0-86.640625-22.789062-86.640625-68.980468s4.199219-142.269532 86.640625-142.269532c82.4375 0 86.640625 96.078126 86.640625 142.269532s-6.300781 68.980468-86.640625 68.980468zm0 0" fill="#ffb25a"/><path d="m165.871094 466.9375c0-43.65625 3.765625-131.847656 73.761718-141.410156-4.070312-.554688-8.351562-.859375-12.878906-.859375-82.441406 0-86.640625 96.074219-86.640625 142.269531 0 46.191406 6.300781 68.980469 86.640625 68.980469 4.527344 0 8.808594-.078125 12.878906-.222657-68.140624-2.429687-73.761718-25.171874-73.761718-68.757812zm0 0" fill="#ff9c20"/><g fill="#423e4f"><path d="m266.242188 466.46875c-4.019532-3.507812-10.117188-3.097656-13.628907.914062-2.234375 2.5625-5.625 4.027344-9.296875 4.027344-3.664062 0-7.054687-1.464844-9.289062-4.023437-1.8125-2.074219-4.523438-3.292969-7.273438-3.292969-2.753906 0-5.457031 1.214844-7.269531 3.292969-2.242187 2.558593-5.625 4.03125-9.296875 4.03125-3.667969 0-7.054688-1.472657-9.292969-4.03125-3.515625-4.015625-9.613281-4.425781-13.625-.917969-4.019531 3.511719-4.429687 9.617188-.917969 13.628906 5.90625 6.757813 14.59375 10.628906 23.835938 10.628906 5.953125 0 11.671875-1.609374 16.566406-4.558593 4.898438 2.949219 10.617188 4.558593 16.570313 4.558593 9.242187 0 17.933593-3.871093 23.835937-10.628906 3.507813-4.011718 3.101563-10.117187-.917968-13.628906zm0 0"/><path d="m133.109375 339.679688c-5.332031 0-9.660156-4.328126-9.660156-9.660157v-20.644531c0-5.332031 4.328125-9.65625 9.660156-9.65625s9.65625 4.324219 9.65625 9.65625v20.644531c0 5.335938-4.324219 9.660157-9.65625 9.660157zm0 0"/><path d="m320.402344 339.679688c-5.335938 0-9.65625-4.328126-9.65625-9.660157v-20.644531c0-5.332031 4.320312-9.65625 9.65625-9.65625 5.332031 0 9.652344 4.324219 9.652344 9.65625v20.644531c0 5.335938-4.320313 9.660157-9.652344 9.660157zm0 0"/></g><path d="m360.402344 367.492188h-22.929688c-5.332031 0-9.65625-4.324219-9.65625-9.660157 0-5.332031 4.324219-9.65625 9.65625-9.65625h22.929688c5.332031 0 9.660156 4.324219 9.660156 9.65625 0 5.335938-4.328125 9.660157-9.660156 9.660157zm0 0" fill="#ff9db0"/><path d="m116.03125 367.492188h-22.921875c-5.339844 0-9.660156-4.324219-9.660156-9.660157 0-5.332031 4.320312-9.65625 9.660156-9.65625h22.921875c5.339844 0 9.660156 4.324219 9.660156 9.65625 0 5.335938-4.320312 9.660157-9.660156 9.660157zm0 0" fill="#ff9db0"/><path d="m260.710938 420.253906c-.011719-3.328125-2.816407-5.976562-6.148438-5.976562h-55.621094c-3.324218 0-6.136718 2.648437-6.144531 5.976562v.058594c0 14.863281 15.203125 26.914062 33.957031 26.914062 18.75 0 33.957032-12.050781 33.957032-26.914062 0-.019531 0-.039062 0-.058594zm0 0" fill="#423e4f"/></svg>