<svg height="682pt" viewBox="-21 -34 682.66575 682" width="682pt" xmlns="http://www.w3.org/2000/svg"><path d="m150.789062 100.324219c-12.449218-22.320313-39.367187-39.164063-65.4375-34.730469-36.265624 6.160156-37.277343 41.410156-48.253906 69.144531-7.316406 18.488281-32.394531 41.949219-9.542968 59.355469 22.148437 16.871094 59.753906-8.203125 78.070312-20.964844zm0 0" fill="#de8957"/><path d="m486.289062 100.324219c12.449219-22.320313 39.371094-39.164063 65.4375-34.730469 36.265626 6.160156 37.277344 41.410156 48.253907 69.144531 7.320312 18.488281 32.398437 41.949219 9.546875 59.355469-22.148438 16.871094-59.757813-8.203125-78.074219-20.964844zm0 0" fill="#de8957"/><path d="m592.976562 199.714844c-7.898437-49.214844-28.957031-95.15625-61.355468-133.558594-18.90625 4.085938-36.097656 17.617188-45.332032 34.167969l45.164063 72.808593c14.273437 9.945313 40.265625 27.363282 61.523437 26.582032zm0 0" fill="#c76d33"/><path d="m46.996094 199.703125c20.679687-.769531 44.996094-17.074219 58.628906-26.574219l45.164062-72.808594c-8.867187-15.898437-25.085937-29.015624-43.105468-33.644531-32.078125 38.320313-52.875 84.042969-60.6875 133.027344zm0 0" fill="#c76d33"/><path d="m635.378906 613.71875c6.910156-22.027344 6.074219-45.839844-2.550781-67.421875-7.53125-18.820313-10.925781-39.195313-7.101563-59.746094 4.976563-26.742187 1.078126-54.445312-14.398437-77.75-11.1875-16.851562-18.507813-35.210937-19.296875-55.632812-.628906-16.226563-4.296875-32.691407-12.320312-47.398438-11.597657-21.253906-14.929688-43.632812-15.464844-67.476562-2.949219-132.851563-112.824219-239.570313-245.707032-238.789063-134.253906.785156-242.847656 109.863282-242.847656 244.300782v.386718c.035156 21.507813-5.105468 42.699219-15.402344 61.582032-7.351562 13.472656-11.589843 28.574218-12.195312 44.210937-.828125 21.425781-7.617188 41.042969-19.421875 58.816406-15.363281 23.128907-19.417969 50.765625-14.398437 77.75 3.816406 20.527344.574218 40.554688-7.101563 59.746094-8.628906 21.582031-9.460937 45.398437-2.554687 67.421875zm0 0" fill="#f1c6ad"/><path d="m45.804688 546.296875c7.675781-19.191406 10.917968-39.21875 7.101562-59.746094-5.019531-26.984375-.964844-54.621093 14.398438-77.75 11.804687-17.773437 18.59375-37.390625 19.421874-58.816406.605469-15.636719 4.84375-30.738281 12.195313-44.210937 10.300781-18.882813 15.4375-40.074219 15.402344-61.582032 0-.125 0-.253906 0-.386718 0-128.378907 99.03125-233.625 224.871093-243.535157-6.816406-.535156-13.703124-.808593-20.65625-.765625-134.253906.785156-242.847656 109.863282-242.847656 244.300782v.386718c.035156 21.507813-5.105468 42.699219-15.402344 61.582032-7.351562 13.472656-11.589843 28.574218-12.195312 44.210937-.828125 21.425781-7.617188 41.042969-19.421875 58.816406-15.363281 23.128907-19.417969 50.765625-14.398437 77.75 3.816406 20.527344.574218 40.554688-7.101563 59.746094-8.628906 21.582031-9.460937 45.394531-2.554687 67.421875h38.632812c-6.90625-22.023438-6.074219-45.839844 2.554688-67.421875zm0 0" fill="#de8957"/><path d="m355.550781 312.863281c-.007812-3.480469-2.949219-6.253906-6.433593-6.253906h-58.234376c-3.484374 0-6.425781 2.773437-6.433593 6.253906v.070313c0 15.554687 15.917969 28.175781 35.550781 28.175781s35.550781-12.621094 35.550781-28.175781c0-.027344 0-.046875 0-.070313zm0 0" fill="#423e4f"/><path d="m468.425781 283.570312c-9.835937 0-19.675781-2.152343-28.847656-6.464843-13.105469-6.160157-28.144531-6.160157-41.253906 0-18.335938 8.621093-39.359375 8.621093-57.695313 0-13.109375-6.160157-28.148437-6.160157-41.257812 0-18.332032 8.621093-39.363282 8.621093-57.691406 0-13.117188-6.160157-28.148438-6.160157-41.261719 0-18.332031 8.621093-39.359375 8.621093-57.695313 0-4.824218-2.269531-6.898437-8.019531-4.628906-12.84375 2.273438-4.832031 8.023438-6.90625 12.847656-4.636719 13.109375 6.164062 28.148438 6.167969 41.261719 0 18.332031-8.617188 39.359375-8.617188 57.695313 0 13.109374 6.167969 28.148437 6.164062 41.253906 0 18.335937-8.617188 39.363281-8.617188 57.695312 0 13.109375 6.164062 28.148438 6.164062 41.253906 0 18.335938-8.617188 39.367188-8.617188 57.695313 0 13.117187 6.164062 28.148437 6.167969 41.261719 0 4.828125-2.269531 10.578125-.195312 12.851562 4.628906 2.269532 4.832032.195313 10.582032-4.636718 12.851563-9.164063 4.3125-19.007813 6.464843-28.847657 6.464843zm0 0" fill="#e8a882"/><path d="m284.449219 383.269531v25.984375c0 19.636719 15.917969 35.554688 35.550781 35.554688s35.550781-15.917969 35.550781-35.554688v-26.101562l-35.550781-11.164063zm0 0" fill="#ff889e"/><path d="m329.65625 370.382812v32.542969c0 5.332031-4.320312 9.660157-9.65625 9.660157-5.332031 0-9.660156-4.328126-9.660156-9.660157v-32.542969zm0 0" fill="#fd5f7e"/><path d="m349.773438 393.214844c-10.945313 0-21.378907-3.472656-29.773438-9.746094-8.394531 6.273438-18.828125 9.746094-29.777344 9.746094-14.386718 0-27.890625-6.003906-37.042968-16.472656-3.507813-4.015626-3.101563-10.117188.917968-13.628907 4.015625-3.511719 10.117188-3.101562 13.625.917969 5.484375 6.273438 13.6875 9.871094 22.5 9.871094 8.820313 0 17.023438-3.597656 22.507813-9.871094 1.828125-2.101562 4.480469-3.300781 7.269531-3.300781s5.4375 1.199219 7.269531 3.300781c5.484375 6.273438 13.6875 9.871094 22.503907 9.871094 8.816406 0 17.019531-3.597656 22.5-9.871094 3.511718-4.019531 9.617187-4.429688 13.628906-.917969 4.015625 3.511719 4.429687 9.613281.914062 13.628907-9.152344 10.46875-22.652344 16.472656-37.042968 16.472656zm0 0" fill="#423e4f"/></svg>